<?xml version="1.0" encoding="utf-8"?>
<!-- Generator: Adobe Illustrator 19.1.0, SVG Export Plug-In . SVG Version: 6.00 Build 0)  -->
<svg version="1.1" id="Layer_1" xmlns="http://www.w3.org/2000/svg" xmlns:xlink="http://www.w3.org/1999/xlink" x="0px" y="0px"
	 viewBox="0 0 200 130" style="enable-background:new 0 0 200 130;" xml:space="preserve">
<style type="text/css">
	.st0{fill:#ceff00;}
	.st1{fill:#282828;}
	.st2{fill:#545454;}
	.st3{fill:#333333;}
</style>
<g id="Parts">
	<polygon class="st0" points="19.6,78 31.1,84.6 19.6,91.2 8.1,97.9 8.1,84.6 8.1,71.4 	"/>
	<polygon class="st1" points="31,68.3 31,81.5 19.5,74.9 8.1,68.3 19.5,61.6 31,55 	"/>
	<polygon class="st2" points="19.6,44.9 31.1,51.5 19.6,58.2 8.1,64.8 8.1,51.5 8.1,38.3 	"/>
	<polygon class="st3" points="20.1,42.5 8.6,35.9 20.1,29.2 31.6,22.6 31.6,35.9 31.6,49.1 	"/>
	<polygon class="st1" points="45.5,27.5 56.9,34.1 45.5,40.7 34,47.4 34,34.1 34,20.9 	"/>
	<polygon class="st0" points="48.2,25.8 36.7,19.2 48.2,12.6 59.7,6 59.7,19.2 59.7,32.4 	"/>
	<polygon class="st0" points="73.6,12.3 85,18.9 73.6,25.6 62.1,32.2 62.1,18.9 62.1,5.7 	"/>
	<polygon class="st1" points="75.6,40.2 64.1,33.6 75.6,27 87,20.4 87,33.6 87,46.9 	"/>
	<polygon class="st3" points="100.7,28.2 112.2,34.9 100.7,41.5 89.2,48.1 89.2,34.9 89.2,21.6 	"/>
	<polygon class="st2" points="101.9,56.7 90.5,50 101.9,43.4 113.4,36.8 113.4,50 113.4,63.3 	"/>
	<polygon class="st1" points="101.7,59.3 113.2,66 101.7,72.6 90.2,79.2 90.2,66 90.2,52.7 	"/>
	<polygon class="st0" points="102.2,87.8 90.7,81.1 102.2,74.5 113.7,67.9 113.7,81.1 113.7,94.4 	"/>
	<polygon class="st0" points="102.2,90.2 113.7,96.8 102.2,103.4 90.7,110 90.7,96.8 90.7,83.6 	"/>
	<polygon class="st1" points="114,112 114,125.3 102.8,118.7 91.5,112 102.8,105.4 114,98.8 	"/>
	<polygon class="st2" points="128.6,105.4 140,112 128.6,118.6 117.1,125.2 117.1,112 117.1,98.7 	"/>
	<polygon class="st3" points="130.3,103.4 118.8,96.8 130.3,90.2 141.8,83.6 141.8,96.8 141.8,110 	"/>
	<polygon class="st1" points="155.7,88.9 167.1,95.6 155.7,102.2 144.2,108.8 144.2,95.6 144.2,82.3 	"/>
	<polygon class="st2" points="156.2,86.5 144.7,79.9 156.2,73.3 167.6,66.7 167.6,79.9 167.6,93.1 	"/>
	<polygon class="st3" points="156.2,57.1 167.6,63.7 156.2,70.3 144.7,77 144.7,63.7 144.7,50.5 	"/>
	<polygon class="st1" points="156.2,54.4 144.7,47.8 156.2,41.2 167.6,34.6 167.6,47.8 167.6,61 	"/>
	<polygon class="st2" points="156.4,25.8 167.9,32.4 156.4,39 145,45.6 145,32.4 145,19.1 	"/>
	<polygon class="st1" points="157.2,23.3 145.7,16.7 157.2,10.1 168.6,3.5 168.6,16.7 168.6,29.9 	"/>
	<polygon class="st0" points="182.3,10.3 193.8,17 182.3,23.6 170.8,30.2 170.8,17 170.8,3.7 	"/>
	<polygon class="st0" points="183.5,38.7 172.1,32.1 183.5,25.5 195,18.9 195,32.1 195,45.4 	"/>
</g>
</svg>
